<svg xmlns="http://www.w3.org/2000/svg" fill="none" viewBox="-0.5 -0.5 16 16" id="Github-Logo--Streamline-Ultimate.svg" height="16" width="16"><desc>Github Logo Streamline Icon: https://streamlinehq.com</desc><path fill="#808080" d="M13.60725 5.875L13.62775 5.889687500000001S15.32325 2.9600625000000003 13.24325 1.252375C11.9616875 1.252375 10.0021875 3.367 10.0021875 3.367L10.0163125 3.37725C8.387125 2.9075 6.6589374999999995 2.904 5.0278125 3.367C5.016937500000001 3.357375 3.065125 1.252375 1.78675 1.252375C-0.24643749999999998 2.9184375 1.319625 5.7455625 1.3933125 5.876875C0.6837500000000001 6.9654375 0.36831250000000004 8.264125 0.49943750000000003 9.556875C0.653875 11.559999999999999 2.32375 13.747625000000001 4.3325625 13.747625000000001H10.6666875C12.6755625 13.747625000000001 14.3460625 11.559999999999999 14.4998125 9.556875C14.6328125 8.2635625 14.3176875 6.9638124999999995 13.60725 5.875Z" stroke-width="1"></path><path fill="#b2b2b2" d="M0.705125 7.3756875C2.7326875 6.07825 5.093562499999999 5.397937499999999 7.500624999999999 5.4174375C9.9076875 5.397125000000001 12.2688125 6.07675 14.2966875 7.37375C14.1463125 6.8406875 13.9136875 6.334375 13.60725 5.8730625000000005L13.62775 5.887812500000001S15.32325 2.958125 13.24325 1.2505C11.9616875 1.2505 10.0021875 3.3650625 10.0021875 3.3650625L10.0163125 3.3746875C8.386875 2.906125 6.6587499999999995 2.9035 5.0278125 3.367C5.016937500000001 3.357375 3.065125 1.252375 1.78675 1.252375C-0.24643749999999998 2.9184375 1.319625 5.7455625 1.3933125 5.876875C1.087625 6.338 0.8554375000000001 6.843875000000001 0.705125 7.376312499999999Z" stroke-width="1"></path><path stroke="#191919" stroke-linecap="round" stroke-linejoin="round" d="M13.60725 5.875L13.62775 5.889687500000001S15.32325 2.9600625000000003 13.24325 1.252375C11.9616875 1.252375 10.0021875 3.367 10.0021875 3.367L10.0163125 3.37725C8.387125 2.9075 6.6589374999999995 2.904 5.0278125 3.367C5.016937500000001 3.357375 3.065125 1.252375 1.78675 1.252375C-0.24643749999999998 2.9184375 1.319625 5.7455625 1.3933125 5.876875C0.6837500000000001 6.9654375 0.36831250000000004 8.264125 0.49943750000000003 9.556875C0.653875 11.559999999999999 2.32375 13.747625000000001 4.3325625 13.747625000000001H10.6666875C12.6755625 13.747625000000001 14.3460625 11.559999999999999 14.4998125 9.556875C14.6328125 8.2635625 14.3176875 6.9638124999999995 13.60725 5.875Z" stroke-width="1"></path><path fill="#ffdda1" stroke="#191919" stroke-linecap="round" stroke-linejoin="round" d="M12.306437500000001 10.223312499999999C12.306437500000001 6.3985 9.6625625 7.9600625 7.500624999999999 7.9600625C5.338625 7.9600625 2.69475 6.43825 2.69475 10.223312499999999C2.69475 11.4619375 3.6988749999999997 12.4660625 4.9375 12.4660625H10.06375C11.302375 12.4660625 12.306437500000001 11.4619375 12.306437500000001 10.223312499999999H12.306437500000001Z" stroke-width="1"></path><path fill="#c77f67" stroke="#191919" stroke-linecap="round" stroke-linejoin="round" d="M9.7568125 11.1845C10.1105 11.1845 10.3975625 10.753874999999999 10.3975625 10.223312499999999S10.1105 9.262125 9.7568125 9.262125S9.116 9.69275 9.116 10.223312499999999S9.4030625 11.1845 9.7568125 11.1845Z" stroke-width="1"></path><path fill="#c77f67" stroke="#191919" stroke-linecap="round" stroke-linejoin="round" d="M5.2713125000000005 11.1845C5.6250625 11.1845 5.9121250000000005 10.753874999999999 5.9121250000000005 10.223312499999999S5.6250625 9.262125 5.2713125000000005 9.262125S4.6305625 9.69275 4.6305625 10.223312499999999S4.917625 11.1845 5.2713125000000005 11.1845Z" stroke-width="1"></path></svg>