<svg xmlns="http://www.w3.org/2000/svg" fill="none" viewBox="-0.5 -0.5 16 16" id="Instagram-Logo--Streamline-Ultimate.svg" height="16" width="16"><desc>Instagram Logo Streamline Icon: https://streamlinehq.com</desc><path fill="#ffbfc5" d="M10.9375 0.3125h-6.875a3.75 3.75 0 0 0 -3.75 3.75v6.875a3.75 3.75 0 0 0 3.75 3.75h6.875a3.75 3.75 0 0 0 3.75 -3.75v-6.875a3.75 3.75 0 0 0 -3.75 -3.75Z" stroke-width="1"></path><path fill="#ff808c" d="M13.55125 1.375 1.375 13.551874999999999A3.7375000000000003 3.7375000000000003 0 0 0 4.0625 14.6875h6.875a3.75 3.75 0 0 0 3.75 -3.75v-6.875a3.735625 3.735625 0 0 0 -1.13625 -2.6875Z" stroke-width="1"></path><path stroke="#191919" stroke-linecap="round" stroke-linejoin="round" d="M10.9375 0.3125h-6.875a3.75 3.75 0 0 0 -3.75 3.75v6.875a3.75 3.75 0 0 0 3.75 3.75h6.875a3.75 3.75 0 0 0 3.75 -3.75v-6.875a3.75 3.75 0 0 0 -3.75 -3.75Z" stroke-width="1"></path><path fill="#ffffff" stroke="#191919" stroke-linecap="round" stroke-linejoin="round" d="M7.5 11.25a3.75 3.75 0 1 0 0 -7.5 3.75 3.75 0 0 0 0 7.5Z" stroke-width="1"></path><path fill="#ffffff" stroke="#191919" stroke-linecap="round" stroke-linejoin="round" d="M11.875 4.0625a0.9375 0.9375 0 1 0 0 -1.875 0.9375 0.9375 0 0 0 0 1.875Z" stroke-width="1"></path></svg>