<svg xmlns="http://www.w3.org/2000/svg" fill="none" viewBox="-0.75 -0.75 24 24" id="Mail--Streamline-Stickies.svg" height="24" width="24"><desc>Mail Streamline Icon: https://streamlinehq.com</desc><path fill="#00034a" stroke="#00034a" stroke-miterlimit="10" d="M19.594575 3.649725C18.7977375 2.9187 14.53910625 2.7195187499999998 10.98939375 2.7195187499999998C7.439625 2.7195187499999998 3.2014687499999996 2.9187 2.38415625 3.64966875C0.80325 4.38125625 0.50169375 8.13515625 0.50169375 10.958906250000002C0.50169375 13.04949375 0.667125 15.64970625 1.3942125 17.156475C1.6952625 17.77955625 2.2519125 18.55479375 2.88939375 18.84976875C3.6906187499999996 19.58180625 7.950375 19.78048125 11.494575 19.78048125C15.038775000000001 19.78048125 19.28745 19.60891875 20.09919375 18.850275C21.71334375 18.11874375 21.99830625 14.36484375 21.99830625 11.5410375C21.99830625 9.703406249999999 21.86386875 7.47118125 21.334274999999998 5.9350499999999995C21.0493125 5.1105374999999995 20.4301125 4.037062499999999 19.594575 3.649725Z" stroke-width="1.5"></path><path fill="#9bff00" stroke="#00034a" stroke-miterlimit="10" d="M19.594575 18.26814375C21.2076 17.5366125 21.492562500000002 13.7827125 21.492562500000002 10.958906250000002S21.17548125 4.3812 19.594575 3.64966875C18.7977375 2.9187 14.53910625 2.7195187499999998 10.98939375 2.7195187499999998C7.439625 2.7195187499999998 3.2014687499999996 2.9187 2.38415625 3.64966875C0.80325 4.38125625 0.50169375 8.13515625 0.50169375 10.958906250000002S0.80325 17.5366125 2.38415625 18.26814375C3.1854375 18.99916875 7.4451374999999995 19.197787499999997 10.988831249999999 19.197787499999997C14.53359375 19.197787499999997 18.7822125 19.02628125 19.594575 18.26814375Z" stroke-width="1.5"></path><path stroke="#00034a" stroke-linecap="round" stroke-miterlimit="10" d="M2.74494375 7.1944875C4.70773125 9.2435625 7.55251875 11.4591375 8.42900625 11.8409625C10.043887499999999 12.6329625 11.9343375 12.6329625 13.5491625 11.8409625C14.4207 11.496768750000001 17.2654875 9.265106249999999 19.22878125 7.193924999999999" stroke-width="1.5"></path><path stroke="#00034a" stroke-linecap="round" stroke-miterlimit="10" d="M7.99351875 11.706525L4.25064375 15.4549125" stroke-width="1.5"></path><path stroke="#00034a" stroke-linecap="round" stroke-miterlimit="10" d="M13.98465 11.706525L17.73365625 15.4549125" stroke-width="1.5"></path></svg>